<mxfile host="app.diagrams.net" modified="2024-02-21T15:41:48.068Z" agent="Mozilla/5.0 (Windows NT 10.0; Win64; x64) AppleWebKit/537.36 (KHTML, like Gecko) Chrome/121.0.0.0 Safari/537.36" etag="oBc8g5eWZlljxo-aNXQk" version="23.1.5" type="device">
  <diagram name="Page-1" id="WHxpcmtHbCmQP2puZWoR">
    <mxGraphModel dx="1050" dy="569" grid="1" gridSize="10" guides="1" tooltips="1" connect="1" arrows="1" fold="1" page="1" pageScale="1" pageWidth="850" pageHeight="1100" math="0" shadow="0">
      <root>
        <mxCell id="0" />
        <mxCell id="1" parent="0" />
        <mxCell id="aUndiYgjPMZcbq26TZ2_-1" value="" style="whiteSpace=wrap;html=1;aspect=fixed;" vertex="1" parent="1">
          <mxGeometry x="60" y="100" width="380" height="380" as="geometry" />
        </mxCell>
        <mxCell id="aUndiYgjPMZcbq26TZ2_-2" value="" style="rounded=0;whiteSpace=wrap;html=1;" vertex="1" parent="1">
          <mxGeometry x="75" y="130" width="340" height="100" as="geometry" />
        </mxCell>
        <mxCell id="aUndiYgjPMZcbq26TZ2_-13" style="edgeStyle=orthogonalEdgeStyle;rounded=0;orthogonalLoop=1;jettySize=auto;html=1;" edge="1" parent="1" source="aUndiYgjPMZcbq26TZ2_-3">
          <mxGeometry relative="1" as="geometry">
            <mxPoint x="470" y="155" as="targetPoint" />
          </mxGeometry>
        </mxCell>
        <mxCell id="aUndiYgjPMZcbq26TZ2_-3" value="&lt;b&gt;Form -&amp;gt; input&lt;/b&gt;" style="rounded=0;whiteSpace=wrap;html=1;" vertex="1" parent="1">
          <mxGeometry x="110" y="140" width="270" height="30" as="geometry" />
        </mxCell>
        <mxCell id="aUndiYgjPMZcbq26TZ2_-4" value="" style="rounded=0;whiteSpace=wrap;html=1;" vertex="1" parent="1">
          <mxGeometry x="110" y="180" width="270" height="30" as="geometry" />
        </mxCell>
        <mxCell id="aUndiYgjPMZcbq26TZ2_-6" value="" style="rounded=0;whiteSpace=wrap;html=1;" vertex="1" parent="1">
          <mxGeometry x="85" y="270" width="340" height="180" as="geometry" />
        </mxCell>
        <mxCell id="aUndiYgjPMZcbq26TZ2_-7" value="&lt;b&gt;table-&amp;gt; list&lt;/b&gt;" style="rounded=0;whiteSpace=wrap;html=1;" vertex="1" parent="1">
          <mxGeometry x="130" y="290" width="180" height="20" as="geometry" />
        </mxCell>
        <mxCell id="aUndiYgjPMZcbq26TZ2_-15" style="edgeStyle=orthogonalEdgeStyle;rounded=0;orthogonalLoop=1;jettySize=auto;html=1;" edge="1" parent="1" source="aUndiYgjPMZcbq26TZ2_-10">
          <mxGeometry relative="1" as="geometry">
            <mxPoint x="480" y="330" as="targetPoint" />
          </mxGeometry>
        </mxCell>
        <mxCell id="aUndiYgjPMZcbq26TZ2_-10" value="&lt;b&gt;Output&lt;/b&gt;" style="rounded=0;whiteSpace=wrap;html=1;" vertex="1" parent="1">
          <mxGeometry x="130" y="320" width="180" height="20" as="geometry" />
        </mxCell>
        <mxCell id="aUndiYgjPMZcbq26TZ2_-11" value="" style="rounded=0;whiteSpace=wrap;html=1;" vertex="1" parent="1">
          <mxGeometry x="130" y="350" width="180" height="20" as="geometry" />
        </mxCell>
        <mxCell id="aUndiYgjPMZcbq26TZ2_-12" value="" style="rounded=0;whiteSpace=wrap;html=1;" vertex="1" parent="1">
          <mxGeometry x="130" y="380" width="180" height="20" as="geometry" />
        </mxCell>
        <mxCell id="aUndiYgjPMZcbq26TZ2_-14" value="Input fields" style="text;html=1;align=center;verticalAlign=middle;resizable=0;points=[];autosize=1;strokeColor=none;fillColor=none;" vertex="1" parent="1">
          <mxGeometry x="460" y="140" width="80" height="30" as="geometry" />
        </mxCell>
        <mxCell id="aUndiYgjPMZcbq26TZ2_-16" value="List Items" style="text;html=1;align=center;verticalAlign=middle;resizable=0;points=[];autosize=1;strokeColor=none;fillColor=none;" vertex="1" parent="1">
          <mxGeometry x="475" y="315" width="70" height="30" as="geometry" />
        </mxCell>
        <mxCell id="aUndiYgjPMZcbq26TZ2_-29" style="edgeStyle=orthogonalEdgeStyle;rounded=0;orthogonalLoop=1;jettySize=auto;html=1;entryX=0.5;entryY=0;entryDx=0;entryDy=0;" edge="1" parent="1" source="aUndiYgjPMZcbq26TZ2_-18" target="aUndiYgjPMZcbq26TZ2_-20">
          <mxGeometry relative="1" as="geometry" />
        </mxCell>
        <mxCell id="aUndiYgjPMZcbq26TZ2_-32" value="&lt;b&gt;HF&lt;/b&gt;" style="edgeLabel;html=1;align=center;verticalAlign=middle;resizable=0;points=[];" vertex="1" connectable="0" parent="aUndiYgjPMZcbq26TZ2_-29">
          <mxGeometry x="0.1545" y="-2" relative="1" as="geometry">
            <mxPoint as="offset" />
          </mxGeometry>
        </mxCell>
        <mxCell id="aUndiYgjPMZcbq26TZ2_-18" value="&lt;b&gt;App State&lt;br&gt;Handle Func&lt;/b&gt;" style="ellipse;whiteSpace=wrap;html=1;aspect=fixed;" vertex="1" parent="1">
          <mxGeometry x="650" y="115" width="80" height="80" as="geometry" />
        </mxCell>
        <mxCell id="aUndiYgjPMZcbq26TZ2_-30" style="edgeStyle=orthogonalEdgeStyle;rounded=0;orthogonalLoop=1;jettySize=auto;html=1;entryX=0;entryY=0.5;entryDx=0;entryDy=0;" edge="1" parent="1" source="aUndiYgjPMZcbq26TZ2_-20" target="aUndiYgjPMZcbq26TZ2_-18">
          <mxGeometry relative="1" as="geometry">
            <Array as="points">
              <mxPoint x="540" y="300" />
              <mxPoint x="540" y="155" />
            </Array>
          </mxGeometry>
        </mxCell>
        <mxCell id="aUndiYgjPMZcbq26TZ2_-31" value="&lt;b&gt;State Lifting&lt;/b&gt;" style="edgeLabel;html=1;align=center;verticalAlign=middle;resizable=0;points=[];" vertex="1" connectable="0" parent="aUndiYgjPMZcbq26TZ2_-30">
          <mxGeometry x="-0.2912" y="-2" relative="1" as="geometry">
            <mxPoint as="offset" />
          </mxGeometry>
        </mxCell>
        <mxCell id="aUndiYgjPMZcbq26TZ2_-20" value="&lt;b&gt;Local State&lt;br&gt;HF (LS)&lt;br&gt;&lt;/b&gt;" style="ellipse;whiteSpace=wrap;html=1;aspect=fixed;" vertex="1" parent="1">
          <mxGeometry x="570" y="260" width="80" height="80" as="geometry" />
        </mxCell>
        <mxCell id="aUndiYgjPMZcbq26TZ2_-21" value="&lt;b&gt;Table View&lt;/b&gt;" style="ellipse;whiteSpace=wrap;html=1;aspect=fixed;" vertex="1" parent="1">
          <mxGeometry x="730" y="260" width="80" height="80" as="geometry" />
        </mxCell>
        <mxCell id="aUndiYgjPMZcbq26TZ2_-28" style="edgeStyle=orthogonalEdgeStyle;rounded=0;orthogonalLoop=1;jettySize=auto;html=1;entryX=0.375;entryY=0.063;entryDx=0;entryDy=0;entryPerimeter=0;" edge="1" parent="1" source="aUndiYgjPMZcbq26TZ2_-18" target="aUndiYgjPMZcbq26TZ2_-21">
          <mxGeometry relative="1" as="geometry" />
        </mxCell>
        <mxCell id="aUndiYgjPMZcbq26TZ2_-33" value="&lt;b&gt;State&lt;/b&gt;" style="edgeLabel;html=1;align=center;verticalAlign=middle;resizable=0;points=[];" vertex="1" connectable="0" parent="aUndiYgjPMZcbq26TZ2_-28">
          <mxGeometry x="0.104" relative="1" as="geometry">
            <mxPoint y="1" as="offset" />
          </mxGeometry>
        </mxCell>
      </root>
    </mxGraphModel>
  </diagram>
</mxfile>
